<svg xmlns="http://www.w3.org/2000/svg" xmlns:xlink="http://www.w3.org/1999/xlink" viewBox="0 0 313.63 202.51"><defs><style>.cls-1{stroke-miterlimit:10;stroke-width:0.75px;fill:url(#linear-gradient);stroke:url(#linear-gradient-2);}.cls-2{fill:url(#linear-gradient-3);}.cls-3{fill:url(#linear-gradient-4);}.cls-4{fill:url(#linear-gradient-5);}.cls-5{fill:url(#linear-gradient-6);}.cls-6{fill:url(#linear-gradient-7);}.cls-7{fill:url(#linear-gradient-8);}.cls-8{fill:url(#linear-gradient-9);}.cls-9{fill:url(#linear-gradient-10);}.cls-10{fill:url(#linear-gradient-11);}.cls-11{fill:url(#linear-gradient-12);}.cls-12{fill:url(#linear-gradient-13);}.cls-13{fill:url(#linear-gradient-14);}.cls-14{fill:url(#linear-gradient-15);}.cls-15{fill:url(#linear-gradient-16);}.cls-16{fill:url(#linear-gradient-17);}.cls-17{fill:url(#linear-gradient-18);}.cls-18{fill:url(#linear-gradient-19);}.cls-19{fill:#c93d17;}.cls-20{fill:url(#linear-gradient-20);}.cls-21{fill:url(#linear-gradient-21);}.cls-22{fill:url(#linear-gradient-22);}.cls-23{fill:url(#linear-gradient-23);}.cls-24{fill:url(#linear-gradient-24);}.cls-25{fill:url(#linear-gradient-36);}.cls-26{fill:url(#linear-gradient-37);}.cls-27{fill:url(#linear-gradient-38);}.cls-28{fill:url(#linear-gradient-39);}.cls-29{fill:url(#linear-gradient-40);}.cls-30{fill:url(#linear-gradient-41);}.cls-31{fill:url(#linear-gradient-42);}.cls-32{fill:url(#linear-gradient-43);}.cls-33{fill:url(#linear-gradient-44);}.cls-34{fill:url(#linear-gradient-45);}.cls-35{fill:url(#linear-gradient-46);}.cls-36{fill:url(#linear-gradient-47);}.cls-37{fill:url(#linear-gradient-48);}.cls-38{fill:url(#linear-gradient-51);}.cls-39{fill:url(#linear-gradient-52);}.cls-40{fill:url(#linear-gradient-53);}</style><linearGradient id="linear-gradient" x1="130.39" y1="41.28" x2="197.69" y2="157.85" gradientUnits="userSpaceOnUse"><stop offset="0" stop-color="#151515"/><stop offset="0.28" stop-color="#3c3c3e"/><stop offset="0.29" stop-color="#3b3b3d"/><stop offset="0.74" stop-color="#202020"/><stop offset="1" stop-color="#151515"/></linearGradient><linearGradient id="linear-gradient-2" x1="104.95" y1="-2.78" x2="213.28" y2="184.84" gradientUnits="userSpaceOnUse"><stop offset="0" stop-color="#aeaeb6"/><stop offset="0.1" stop-color="#c8c8d2"/><stop offset="0.23" stop-color="#e4e4ef"/><stop offset="0.3" stop-color="#eeeefa"/><stop offset="0.38" stop-color="#e6e6f2"/><stop offset="1" stop-color="#aeaeb6"/></linearGradient><linearGradient id="linear-gradient-3" x1="62.24" y1="8.99" x2="62.24" y2="97.24" gradientUnits="userSpaceOnUse"><stop offset="0" stop-color="#9f9fa1"/><stop offset="1" stop-color="#151515"/></linearGradient><linearGradient id="linear-gradient-4" x1="251.39" y1="8.99" x2="251.39" y2="97.24" xlink:href="#linear-gradient-3"/><linearGradient id="linear-gradient-5" x1="114.31" y1="7.06" x2="208.1" y2="169.5" gradientUnits="userSpaceOnUse"><stop offset="0" stop-color="#e5591f"/><stop offset="0.06" stop-color="#e2581f"/><stop offset="0.1" stop-color="#d9541e"/><stop offset="0.13" stop-color="#ca4d1d"/><stop offset="0.16" stop-color="#b4441b"/><stop offset="0.18" stop-color="#9a3919"/><stop offset="0.41" stop-color="#f59921"/><stop offset="0.55" stop-color="#ea821e"/><stop offset="1" stop-color="#c93d17"/></linearGradient><linearGradient id="linear-gradient-6" x1="78.32" y1="27.84" x2="172.1" y2="190.29" xlink:href="#linear-gradient-5"/><linearGradient id="linear-gradient-7" x1="132.08" y1="37.62" x2="200.53" y2="156.18" gradientUnits="userSpaceOnUse"><stop offset="0" stop-color="#eeeefa"/><stop offset="0.1" stop-color="#c3c3ce"/><stop offset="0.18" stop-color="#a3a3ae"/><stop offset="0.26" stop-color="#90909a"/><stop offset="0.31" stop-color="#898993"/><stop offset="0.32" stop-color="#9a9aa4"/><stop offset="0.34" stop-color="#b4b4bf"/><stop offset="0.36" stop-color="#c9c9d5"/><stop offset="0.38" stop-color="#dadae6"/><stop offset="0.42" stop-color="#e6e6f1"/><stop offset="0.46" stop-color="#ececf8"/><stop offset="0.59" stop-color="#eeeefa"/><stop offset="0.59" stop-color="#ececf8"/><stop offset="0.63" stop-color="#c8c8d4"/><stop offset="0.68" stop-color="#adadb7"/><stop offset="0.72" stop-color="#9999a3"/><stop offset="0.76" stop-color="#8d8d97"/><stop offset="0.81" stop-color="#898993"/><stop offset="0.83" stop-color="#9a9aa3"/><stop offset="0.85" stop-color="#a5a5ae"/><stop offset="0.89" stop-color="#acacb4"/><stop offset="1" stop-color="#aeaeb6"/></linearGradient><linearGradient id="linear-gradient-8" x1="95.99" y1="58.46" x2="164.44" y2="177.01" xlink:href="#linear-gradient-7"/><linearGradient id="linear-gradient-9" x1="132.1" y1="37.61" x2="200.55" y2="156.17" xlink:href="#linear-gradient-7"/><linearGradient id="linear-gradient-10" x1="0" y1="54.58" x2="313.63" y2="54.58" xlink:href="#linear-gradient-2"/><linearGradient id="linear-gradient-11" x1="95.99" y1="58.46" x2="164.44" y2="177.01" xlink:href="#linear-gradient-7"/><linearGradient id="linear-gradient-12" x1="0" y1="178.84" x2="313.63" y2="178.84" xlink:href="#linear-gradient-2"/><linearGradient id="linear-gradient-13" x1="132.11" y1="37.6" x2="200.56" y2="156.16" xlink:href="#linear-gradient-7"/><linearGradient id="linear-gradient-14" x1="0" y1="58.83" x2="313.63" y2="58.83" xlink:href="#linear-gradient-2"/><linearGradient id="linear-gradient-15" x1="95.99" y1="58.46" x2="164.44" y2="177.01" xlink:href="#linear-gradient-7"/><linearGradient id="linear-gradient-16" x1="0" y1="183.16" x2="313.63" y2="183.16" xlink:href="#linear-gradient-2"/><linearGradient id="linear-gradient-17" x1="139.04" y1="59.15" x2="173.39" y2="118.65" gradientUnits="userSpaceOnUse"><stop offset="0" stop-color="#eeeefa"/><stop offset="0.1" stop-color="#c3c3ce"/><stop offset="0.18" stop-color="#a3a3ae"/><stop offset="0.26" stop-color="#90909a"/><stop offset="0.31" stop-color="#898993"/><stop offset="0.32" stop-color="#9a9aa4"/><stop offset="0.34" stop-color="#b4b4bf"/><stop offset="0.36" stop-color="#c9c9d5"/><stop offset="0.38" stop-color="#dadae6"/><stop offset="0.42" stop-color="#e6e6f1"/><stop offset="0.46" stop-color="#ececf8"/><stop offset="0.59" stop-color="#eeeefa"/><stop offset="0.6" stop-color="#ebebf6"/><stop offset="0.65" stop-color="#d0d0da"/><stop offset="0.71" stop-color="#bdbdc6"/><stop offset="0.77" stop-color="#b2b2ba"/><stop offset="0.83" stop-color="#aeaeb6"/><stop offset="0.83" stop-color="#b6b6bf"/><stop offset="0.85" stop-color="#cbcbd5"/><stop offset="0.87" stop-color="#dbdbe6"/><stop offset="0.89" stop-color="#e6e6f1"/><stop offset="0.92" stop-color="#ececf8"/><stop offset="1" stop-color="#eeeefa"/></linearGradient><linearGradient id="linear-gradient-18" x1="127.54" y1="135.4" x2="185.9" y2="34.33" gradientUnits="userSpaceOnUse"><stop offset="0" stop-color="#eeeefa"/><stop offset="0.1" stop-color="#c3c3ce"/><stop offset="0.18" stop-color="#a3a3ae"/><stop offset="0.26" stop-color="#90909a"/><stop offset="0.31" stop-color="#898993"/><stop offset="0.32" stop-color="#9a9aa4"/><stop offset="0.34" stop-color="#b4b4bf"/><stop offset="0.36" stop-color="#c9c9d5"/><stop offset="0.38" stop-color="#dadae6"/><stop offset="0.42" stop-color="#e6e6f1"/><stop offset="0.46" stop-color="#ececf8"/><stop offset="0.59" stop-color="#eeeefa"/><stop offset="0.6" stop-color="#ebebf6"/><stop offset="0.7" stop-color="#d0d0da"/><stop offset="0.8" stop-color="#bdbdc6"/><stop offset="0.9" stop-color="#b2b2ba"/><stop offset="1" stop-color="#aeaeb6"/></linearGradient><linearGradient id="linear-gradient-19" x1="170.09" y1="52.6" x2="213.78" y2="79.65" xlink:href="#linear-gradient-5"/><linearGradient id="linear-gradient-20" x1="125.65" y1="66.92" x2="208.02" y2="209.58" gradientUnits="userSpaceOnUse"><stop offset="0" stop-color="#898993"/><stop offset="0.03" stop-color="#9797a2"/><stop offset="0.13" stop-color="#c6c6d1"/><stop offset="0.2" stop-color="#e3e3ef"/><stop offset="0.25" stop-color="#eeeefa"/><stop offset="0.32" stop-color="#d9d9e4"/><stop offset="0.43" stop-color="#bbbbc4"/><stop offset="0.53" stop-color="#a8a8b0"/><stop offset="0.6" stop-color="#a1a1a9"/><stop offset="0.62" stop-color="#b6b6bf"/><stop offset="0.64" stop-color="#cacad5"/><stop offset="0.66" stop-color="#dbdbe6"/><stop offset="0.69" stop-color="#e6e6f1"/><stop offset="0.73" stop-color="#ececf8"/><stop offset="0.84" stop-color="#eeeefa"/><stop offset="0.85" stop-color="#ebebf7"/><stop offset="0.95" stop-color="#bfbfc8"/><stop offset="1" stop-color="#aeaeb6"/></linearGradient><linearGradient id="linear-gradient-21" x1="106.39" y1="208.22" x2="198.23" y2="49.15" xlink:href="#linear-gradient-18"/><linearGradient id="linear-gradient-22" x1="302.88" y1="111.47" x2="294.9" y2="160.68" xlink:href="#linear-gradient-5"/><linearGradient id="linear-gradient-23" x1="106.53" y1="111.47" x2="98.55" y2="160.68" gradientTransform="matrix(-1, 0, 0, 1, 117.28, 0)" xlink:href="#linear-gradient-5"/><linearGradient id="linear-gradient-24" x1="172.59" y1="111.9" x2="207.34" y2="172.08" xlink:href="#linear-gradient"/><linearGradient id="linear-gradient-36" x1="89.33" y1="129.87" x2="99.3" y2="147.14" xlink:href="#linear-gradient-2"/><linearGradient id="linear-gradient-37" x1="106.95" y1="129.35" x2="116.49" y2="145.87" xlink:href="#linear-gradient-2"/><linearGradient id="linear-gradient-38" x1="123.64" y1="128.83" x2="133.75" y2="146.34" xlink:href="#linear-gradient-2"/><linearGradient id="linear-gradient-39" x1="142.54" y1="128.06" x2="151.13" y2="142.93" xlink:href="#linear-gradient-2"/><linearGradient id="linear-gradient-40" x1="154.59" y1="132.6" x2="163.73" y2="148.44" xlink:href="#linear-gradient-2"/><linearGradient id="linear-gradient-41" x1="169.97" y1="131.19" x2="179.22" y2="147.21" xlink:href="#linear-gradient-2"/><linearGradient id="linear-gradient-42" x1="193.73" y1="130.58" x2="201.96" y2="144.83" xlink:href="#linear-gradient-2"/><linearGradient id="linear-gradient-43" x1="210.08" y1="127.22" x2="218.94" y2="142.58" xlink:href="#linear-gradient-2"/><linearGradient id="linear-gradient-44" x1="224.74" y1="130.58" x2="232.96" y2="144.83" xlink:href="#linear-gradient-2"/><linearGradient id="linear-gradient-45" x1="240.74" y1="128.06" x2="249.33" y2="142.93" xlink:href="#linear-gradient-2"/><linearGradient id="linear-gradient-46" x1="254.85" y1="129.35" x2="264.38" y2="145.87" xlink:href="#linear-gradient-2"/><linearGradient id="linear-gradient-47" x1="272.31" y1="128.38" x2="282.94" y2="146.79" xlink:href="#linear-gradient-2"/><linearGradient id="linear-gradient-48" x1="50.01" y1="130.11" x2="61.13" y2="149.36" xlink:href="#linear-gradient"/><linearGradient id="linear-gradient-51" x1="32.79" y1="130.42" x2="41" y2="144.64" xlink:href="#linear-gradient-2"/><linearGradient id="linear-gradient-52" x1="47.67" y1="132.51" x2="56.81" y2="148.34" xlink:href="#linear-gradient-2"/><linearGradient id="linear-gradient-53" x1="65.35" y1="129.78" x2="75.32" y2="147.04" xlink:href="#linear-gradient-2"/></defs><g id="Layer_2" data-name="Layer 2"><g id="OBJECTS"><path class="cls-1" d="M303.23,109.17S271,150.66,249,163.8s-88.24,33.34-88.24,33.34l-51-14.74L64.68,163.8s-41.1-31-54.29-54.63c0-13.9-2.76-22.8-2.76-22.8L4.89,67.81,45.49,32,106.68,9.77,172,4.29l48.72,9.6,39,11.41,16.24,16.3,20,13L308.3,73.69"/><path class="cls-2" d="M81.12,143.92c-25-22.09-39.76-46.67-41.87-69.49A125,125,0,0,1,63.1,48.06,131,131,0,0,1,81.56,35.19a159.36,159.36,0,0,0-32,16.61A128.13,128.13,0,0,0,22.3,76.31c2.41,21.21,19.32,44.06,47.9,64.59a248,248,0,0,0,32,19.3A207.8,207.8,0,0,1,81.12,143.92Z"/><path class="cls-3" d="M264,51.8a158.84,158.84,0,0,0-32-16.61,131.61,131.61,0,0,1,18.46,12.87,125,125,0,0,1,23.85,26.37c-2.11,22.82-16.89,47.4-41.87,69.49a207.8,207.8,0,0,1-21.06,16.28,248,248,0,0,0,32-19.3c28.58-20.53,45.49-43.38,47.9-64.59A128.13,128.13,0,0,0,264,51.8Z"/><path class="cls-4" d="M267.41,46.84C246.68,32.77,210.67,16,156.81,16S67,32.77,46.22,46.84C29.58,58.13,19.92,69.48,16.11,74.47c.75,11.37,5.27,23.1,13.2,34.7H33C24.89,97.85,20.17,86.42,19.19,75.4A129.45,129.45,0,0,1,47.9,49.32C68.28,35.49,103.72,19,156.81,19s88.54,16.49,108.92,30.32a129.73,129.73,0,0,1,28.71,26.07c-1,11-5.7,22.46-13.79,33.78h3.67c7.93-11.6,12.45-23.33,13.2-34.7C293.71,69.48,284.05,58.13,267.41,46.84Z"/><path class="cls-5" d="M156.81,183.19C140.21,179.92,121,173,102.68,163.8H96.09c20.36,10.71,42.11,18.86,60.72,22.44,18.61-3.58,40.37-11.73,60.73-22.44h-6.6C192.59,173,173.42,179.92,156.81,183.19Z"/><path class="cls-6" d="M8.52,72.66v-.5l.29-.41C11.57,67.86,22.14,54.11,42,40.63,63.6,26,101.05,8.5,156.81,8.5S250,26,271.62,40.63c19.87,13.49,30.44,27.23,33.21,31.12l.29.41v.5c-.32,12-4.4,24.36-11.89,36.51h8.31c8.17-14.66,10.6-27.72,10.6-38.06v-1l-.54-.85c-.44-.7-11.07-17.34-35.56-34.08C253.57,19.81,214.65,1.5,156.81,1.5S60.06,19.81,37.6,35.17C13.11,51.91,2.48,68.55,2,69.25l-.54.85v1c0,10.34,2.43,23.4,10.6,38.06h8.31C12.92,97,8.84,84.69,8.52,72.66Z"/><path class="cls-7" d="M157.09,193.82l-.28.05-.27-.05c-23.2-4.26-51.26-15.51-75.84-30H67.41c27.71,18,61.51,32.24,88.79,37.08l.61.11.61-.11c27.29-4.84,61.09-19.06,88.8-37.08H232.93C208.35,178.31,180.28,189.56,157.09,193.82Z"/><path class="cls-8" d="M313.63,69.67l-.77-1.22c-.45-.71-11.23-17.6-36-34.52C254.24,18.45,215,0,156.81,0S59.39,18.45,36.75,33.93C12,50.85,1.21,67.74.77,68.45L0,69.67v1.44c0,10.37,2.4,23.43,10.39,38.06H12.1C3.93,94.51,1.5,81.45,1.5,71.11v-1L2,69.25c.44-.7,11.07-17.34,35.56-34.08C60.06,19.81,99,1.5,156.81,1.5S253.57,19.81,276,35.17c24.49,16.74,35.12,33.38,35.56,34.08l.54.85v1c0,10.34-2.43,23.4-10.6,38.06h1.7c8-14.63,10.4-27.69,10.4-38.06Z"/><path class="cls-9" d="M313.63,69.67l-.77-1.22c-.45-.71-11.23-17.6-36-34.52C254.24,18.45,215,0,156.81,0S59.39,18.45,36.75,33.93C12,50.85,1.21,67.74.77,68.45L0,69.67v1.44c0,10.37,2.4,23.43,10.39,38.06H12.1C3.93,94.51,1.5,81.45,1.5,71.11v-1L2,69.25c.44-.7,11.07-17.34,35.56-34.08C60.06,19.81,99,1.5,156.81,1.5S253.57,19.81,276,35.17c24.49,16.74,35.12,33.38,35.56,34.08l.54.85v1c0,10.34-2.43,23.4-10.6,38.06h1.7c8-14.63,10.4-27.69,10.4-38.06Z"/><path class="cls-10" d="M156.81,193.87l.28-.05c23.19-4.26,51.26-15.51,75.84-30h-3c-23.91,13.82-50.77,24.43-73.16,28.55-22.38-4.12-49.24-14.73-73.15-28.55h-3c24.58,14.51,52.64,25.76,75.84,30Z"/><path class="cls-11" d="M156.81,193.87l.28-.05c23.19-4.26,51.26-15.51,75.84-30h-3c-23.91,13.82-50.77,24.43-73.16,28.55-22.38-4.12-49.24-14.73-73.15-28.55h-3c24.58,14.51,52.64,25.76,75.84,30Z"/><path class="cls-12" d="M10,72.62c2.81-4,13.21-17.43,32.83-30.75C64.27,27.33,101.44,10,156.81,10s92.54,17.33,114,31.87c19.63,13.32,30,26.81,32.83,30.75-.32,12-4.48,24.38-12.13,36.55h1.74c7.49-12.15,11.57-24.48,11.89-36.51v-.5l-.29-.41c-2.77-3.89-13.34-17.63-33.21-31.12C250,26,212.57,8.5,156.81,8.5S63.6,26,42,40.63C22.14,54.11,11.57,67.86,8.8,71.75l-.29.41v.5c.32,12,4.4,24.36,11.89,36.51h1.74C14.5,97,10.34,84.66,10,72.62Z"/><path class="cls-13" d="M10,72.62c2.81-4,13.21-17.43,32.83-30.75C64.27,27.33,101.44,10,156.81,10s92.54,17.33,114,31.87c19.63,13.32,30,26.81,32.83,30.75-.32,12-4.48,24.38-12.13,36.55h1.74c7.49-12.15,11.57-24.48,11.89-36.51v-.5l-.29-.41c-2.77-3.89-13.34-17.63-33.21-31.12C250,26,212.57,8.5,156.81,8.5S63.6,26,42,40.63C22.14,54.11,11.57,67.86,8.8,71.75l-.29.41v.5c.32,12,4.4,24.36,11.89,36.51h1.74C14.5,97,10.34,84.66,10,72.62Z"/><path class="cls-14" d="M157.42,200.88l-.61.11-.61-.11C128.92,196,95.12,181.82,67.41,163.8H64.68c28.22,18.72,63.16,33.57,91.26,38.55l.87.16.88-.16c28.1-5,63-19.83,91.26-38.55h-2.73C218.51,181.82,184.71,196,157.42,200.88Z"/><path class="cls-15" d="M157.42,200.88l-.61.11-.61-.11C128.92,196,95.12,181.82,67.41,163.8H64.68c28.22,18.72,63.16,33.57,91.26,38.55l.87.16.88-.16c28.1-5,63-19.83,91.26-38.55h-2.73C218.51,181.82,184.71,196,157.42,200.88Z"/><path class="cls-16" d="M91.2,75.37a16.61,16.61,0,0,0-15.75,22,16.39,16.39,0,0,1-.13-2A16.64,16.64,0,0,1,107.71,90,16.64,16.64,0,0,0,91.2,75.37ZM77.71,73.14c0-.52-4.36-.28-6.78-.12A21.94,21.94,0,0,1,76,70.54c.49-.15,1-.31,1.46-.44l1.57-.35a31.12,31.12,0,0,1,3.22-.62,132.68,132.68,0,0,1,14.19-1.3c10-.44,20.7-.47,31.46-.37s21.57.05,31.74-.38c5.1-.19,10-.56,14.64-1s9-.91,13.06-1.39a193.46,193.46,0,0,0,19.35-3.49c2.31-.57,4.11-1,5.33-1.37l1.88-.51-1.93.2c-1.26.13-3.11.31-5.47.49-4.69.5-11.42.82-19.45,1.21-4,.2-8.38.29-13,.33s-9.5.06-14.5,0L128,61.23l-5.26,0a64.36,64.36,0,0,1,7.45-4.49A104.48,104.48,0,0,1,161.41,46c-12.7,1.51-19.52,3.18-28.86,6.76-5.32,2-13.21,6-18.41,8.68-6.14.13-12.21.4-18.06,1a97.52,97.52,0,0,0-14.72,2.31,33,33,0,0,0-3.44,1l-1.68.52-1.65.66a26.92,26.92,0,0,0-5.84,3.45,24.28,24.28,0,0,0-7.12,9.16,34.53,34.53,0,0,0-2.55,8.36,38.35,38.35,0,0,0-.44,5.53c0,1.27.06,2,.06,2s0-.68.25-1.93a38.33,38.33,0,0,1,1.31-5.27,30.5,30.5,0,0,1,3.42-7.53c.35-.55.73-1.11,1.14-1.65,1.14.23,5.57,1.07,7.56.44C74.69,78.61,77.71,73.86,77.71,73.14ZM192.26,48.48c.75.16,1.6.33,2.53.49,1.86.31,4,.79,6.3,1.28,1.15.23,2.32.55,3.52.8s2.4.59,3.59,1c2.41.64,4.77,1.43,7,2.2s4.27,1.53,6,2.26,3.25,1.22,4.29,1.63l1.65.56-1.48-.93c-1-.55-2.28-1.43-4-2.32s-3.64-2-5.85-2.9a56.7,56.7,0,0,0-7.08-2.5c-1.23-.35-2.48-.61-3.71-.9s-2.44-.5-3.63-.65c-2.36-.37-4.59-.51-6.49-.65-1-.06-1.82-.09-2.6-.1l-2,0-1.75.05,1.72.35Zm28.49,26.89A16.64,16.64,0,0,0,204.1,92a16.37,16.37,0,0,0,.9,5.35,16.37,16.37,0,0,1-.14-2A16.64,16.64,0,0,1,237.26,90,16.64,16.64,0,0,0,220.75,75.37Zm-37.37,25c-5.27-.16-11.43-.48-18-.59s-13.64-.18-20.67-.22-14.08.07-20.68.22l-3.89.1a32.78,32.78,0,0,0-.83-11.08,27.5,27.5,0,0,0-2.7-6.87,33.41,33.41,0,0,0-3.11-4.71A29.24,29.24,0,0,0,111,74.54c-.6-.58-.94-.85-.94-.85s.3.32.8,1a35,35,0,0,1,4.44,7.84,33,33,0,0,1,1.92,6.72,30.48,30.48,0,0,1-.26,11.9l-.35,1.67,1.8.07c1.53.07,3.53.12,5.56.16,6.6.15,13.64.18,20.68.22s14.07-.06,20.67-.22,12.76-.43,18-.59,9.68-.53,12.76-.68l4.84-.36-4.84-.36C193.06,100.88,188.66,100.51,183.38,100.35Zm68.73-18.67a22.55,22.55,0,0,0-2.21-5.79A20.71,20.71,0,0,0,246.05,71a8.21,8.21,0,0,0-1.11-1c-.39-.29-.76-.58-1.14-.83l-1.16-.66-.55-.31-.55-.25a8.12,8.12,0,0,0-2-.69,9.89,9.89,0,0,0-1.62-.27l-1.42,0,1.26.61a7.46,7.46,0,0,1,1.34.77c.51.29,1,.72,1.6,1.13l.44.31.43.38c.28.26.57.52.86.8s.56.61.84.92a10.23,10.23,0,0,1,.86,1,28.62,28.62,0,0,1,3.11,4.52,31.82,31.82,0,0,1,2.28,5,24.61,24.61,0,0,1,1.21,4.69q.06.52.15,1c0,.33,0,.64.07.94a7,7,0,0,1,.06,1.55V92l.6-1.28a11,11,0,0,0,.51-1.56c.08-.31.17-.64.25-1s.08-.73.11-1.12A18.5,18.5,0,0,0,252.11,81.68Z"/><path class="cls-17" d="M144.68,103.58h-1.5c-6.42,0-13.05-.07-19.19-.21-2,0-4-.1-5.57-.16l-1.8-.07a.34.34,0,0,1-.25-.13.35.35,0,0,1-.07-.28l.36-1.67a30.21,30.21,0,0,0,.26-11.77,32.92,32.92,0,0,0-1.9-6.66,28.35,28.35,0,0,0-2.43-4.83,25.44,25.44,0,0,0-2-2.92c-.48-.63-.78-.94-.78-1a.34.34,0,0,1,.45-.5,12.93,12.93,0,0,1,1,.87,30.29,30.29,0,0,1,2.46,2.7,33.16,33.16,0,0,1,3.15,4.76,27.85,27.85,0,0,1,2.73,7,33.1,33.1,0,0,1,.87,10.8c1.1,0,2.3-.06,3.52-.09,6.09-.14,12.67-.18,19.05-.21H147c6.15,0,12.5.07,18.39.21,4.3.07,8.33.23,12.22.38l5.81.21h0c3.47.11,6.62.31,9.15.47,1.34.08,2.55.16,3.61.21l4.84.36a.34.34,0,0,1,.32.34.35.35,0,0,1-.32.34l-4.83.36c-1.08,0-2.3.13-3.66.21-2.52.16-5.66.36-9.11.47l-5.84.21c-3.89.15-7.91.31-12.2.38-5.93.14-12.33.18-18.52.21Zm-27.63-1.11,1.4,0c1.53.07,3.5.12,5.56.16,6.13.14,12.76.18,19.18.21h3.64c6.19,0,12.59-.07,18.51-.21,4.29-.07,8.31-.23,12.2-.38l5.83-.21c3.45-.1,6.58-.3,9.1-.46,1.36-.09,2.59-.17,3.65-.22l.31,0-.32,0c-1-.05-2.26-.13-3.61-.22-2.52-.15-5.66-.35-9.13-.46l-5.82-.21c-3.89-.15-7.91-.31-12.21-.38-5.88-.14-12.23-.18-18.37-.21h-3.92c-6.37,0-13,.07-19,.21l-3.89.1a.41.41,0,0,1-.26-.11.36.36,0,0,1-.09-.26,32.44,32.44,0,0,0-.82-11,27,27,0,0,0-2.67-6.8,32.08,32.08,0,0,0-3.08-4.66L113,77.2l.13.24a29.54,29.54,0,0,1,2.48,4.93,33.47,33.47,0,0,1,1.94,6.8,30.92,30.92,0,0,1-.27,12Zm88-4.76a.35.35,0,0,1-.33-.23A17,17,0,1,1,237.6,90a.34.34,0,0,1-.26.38.35.35,0,0,1-.4-.23,16.3,16.3,0,0,0-31.74,5.25,17.87,17.87,0,0,0,.13,2,.34.34,0,0,1-.26.38Zm15.75-22A16.32,16.32,0,0,0,204.44,92a16,16,0,0,0,.13,2.07,17,17,0,0,1,31.66-7.19A16.31,16.31,0,0,0,220.75,75.71Zm-145.3,22a.33.33,0,0,1-.32-.23A16.83,16.83,0,0,1,74.21,92a17,17,0,0,1,33.84-2,.34.34,0,0,1-.26.38.35.35,0,0,1-.4-.23,16.3,16.3,0,0,0-31.73,5.25,17.84,17.84,0,0,0,.12,2,.34.34,0,0,1-.26.38Zm15.75-22A16.33,16.33,0,0,0,74.89,92,16,16,0,0,0,75,94.09a17,17,0,0,1,31.65-7.19A16.31,16.31,0,0,0,91.2,75.71ZM58.7,95.6a.34.34,0,0,1-.34-.3s-.06-.71-.06-2a37.37,37.37,0,0,1,.45-5.58,34.79,34.79,0,0,1,2.57-8.45A24.78,24.78,0,0,1,68.55,70a26.82,26.82,0,0,1,5.91-3.49l.56-.23c.37-.15.74-.3,1.11-.43l1.68-.54a34,34,0,0,1,3.48-1A95,95,0,0,1,96,62c5.21-.5,10.93-.81,18-1,5.51-2.85,13.15-6.65,18.37-8.65,9.56-3.67,16.59-5.32,28.94-6.79a.34.34,0,0,1,.37.29.33.33,0,0,1-.29.38A105.26,105.26,0,0,0,130.3,57.07a72.47,72.47,0,0,0-6.53,3.85l4.18,0,31.63.38c4.37,0,9.52,0,14.49-.05,5.44,0,9.44-.15,13-.33l1,0c7.48-.36,13.94-.68,18.42-1.16,2.59-.2,4.4-.38,5.46-.49l1.94-.2a.35.35,0,0,1,.37.28.35.35,0,0,1-.25.39l-1.88.51c-1,.28-2.8.75-5.34,1.37l-1.3.28A182.35,182.35,0,0,1,187.41,65c-4.89.58-9,1-13.07,1.39-5.38.49-10.17.82-14.65,1-8.09.34-16.74.35-25.11.36l-6.65,0c-9-.08-20.69-.11-31.45.37a132.86,132.86,0,0,0-14.15,1.3,27,27,0,0,0-3,.57l-1.74.39q-.45.12-.9.27l-.54.16a21.45,21.45,0,0,0-3.87,1.74c5.09-.3,5.47.06,5.64.21a.44.44,0,0,1,.15.33c0,1-3.18,5.77-5.57,6.52-2,.61-6-.1-7.51-.4-.37.51-.71,1-1,1.46a30.22,30.22,0,0,0-3.38,7.45,35.68,35.68,0,0,0-1.3,5.23c-.2,1.21-.25,1.88-.25,1.89a.34.34,0,0,1-.33.31Zm94.1-48.11A96.1,96.1,0,0,0,132.67,53c-5.21,2-12.87,5.81-18.37,8.66a.4.4,0,0,1-.15,0c-7.1.16-12.84.47-18,1A95.45,95.45,0,0,0,81.44,65a29.65,29.65,0,0,0-3.38,1l-1.72.54c-.34.12-.71.27-1.06.42l-.56.22A26.72,26.72,0,0,0,69,70.53a24.26,24.26,0,0,0-7,9,35.43,35.43,0,0,0-2.52,8.28c-.16,1.1-.28,2.18-.35,3.27.24-1.06.54-2.1.88-3.16a30.54,30.54,0,0,1,3.46-7.6c.33-.53.72-1.09,1.15-1.68a.36.36,0,0,1,.34-.13c.89.19,5.44,1.07,7.39.46s4.73-4.76,5.06-5.73a31.11,31.11,0,0,0-6.39.08.32.32,0,0,1-.34-.23.34.34,0,0,1,.13-.39,21.82,21.82,0,0,1,5.18-2.52l.55-.17.94-.28,1.75-.39a30.59,30.59,0,0,1,3.08-.59,134,134,0,0,1,14.21-1.3c10.78-.48,22.49-.45,31.49-.37l6.64,0c8.36,0,17,0,25.08-.36,4.47-.17,9.25-.49,14.62-1,4-.36,8.17-.8,13.05-1.38,7.35-.88,13.52-2.23,18-3.21l1.29-.28c1.23-.3,2.29-.57,3.16-.8-.9.09-2,.18-3.25.28-4.49.48-11,.79-18.44,1.16l-1,0c-3.55.18-7.57.28-13,.33-5,.05-10.12.06-14.5.05l-31.64-.38-5.25,0a.39.39,0,0,1-.32-.23.33.33,0,0,1,.12-.38A64.93,64.93,0,0,1,130,56.47,111.89,111.89,0,0,1,152.8,47.49ZM77.71,73.14h0ZM251,92.36h-.08a.35.35,0,0,1-.26-.34V90.62a5.71,5.71,0,0,0,0-1.35l-.09-1.11c-.05-.3-.1-.65-.15-1a19,19,0,0,0-1-3.89l-.23-.74a32.2,32.2,0,0,0-2.26-4.93,27.67,27.67,0,0,0-3.07-4.47c-.26-.34-.54-.64-.8-.92s-.29-.31-.42-.45-.3-.34-.46-.5l-1.27-1.17-.41-.29c-.2-.13-.39-.28-.57-.41a8.68,8.68,0,0,0-1-.69l-.4-.26a4.09,4.09,0,0,0-.87-.48l-1.3-.63a.33.33,0,0,1,.14-.64h0l1.42,0a6.67,6.67,0,0,1,1.29.2l.39.08a8.53,8.53,0,0,1,2.12.71l.55.25,1.74,1c.3.2.59.41.88.63l.29.21a8.83,8.83,0,0,1,1.16,1,21.75,21.75,0,0,1,3.88,4.94,23.28,23.28,0,0,1,2.27,5.89h0a19.19,19.19,0,0,1,.32,5.49c0,.39-.07.77-.11,1.13s-.16.66-.24,1l0,.09a11.35,11.35,0,0,1-.52,1.61l-.61,1.28A.33.33,0,0,1,251,92.36Zm-12.9-25a6.89,6.89,0,0,1,.79.46l.38.24c.34.2.69.46,1.06.73l.56.41.44.31,1.32,1.21c.18.18.34.36.5.54l.36.39c.32.34.61.65.88,1a29.21,29.21,0,0,1,3.13,4.56,33.65,33.65,0,0,1,2.31,5l.24.77a19.75,19.75,0,0,1,1,4c0,.34.09.67.14,1l.1,1.13a8.94,8.94,0,0,1,.06,1.23c.14-.36.27-.8.42-1.34l0-.09c.08-.28.16-.57.23-.89s.08-.68.1-1.07a18,18,0,0,0-.31-5.29,22.19,22.19,0,0,0-2.18-5.7,21,21,0,0,0-3.77-4.79,7.76,7.76,0,0,0-1.1-.93l-.29-.22c-.28-.21-.55-.41-.83-.59l-1.68-1-.53-.24a8.41,8.41,0,0,0-2-.67l-.41-.08A9.09,9.09,0,0,0,238.06,67.4ZM227.13,59,227,59l-1.65-.56-1.29-.48c-.84-.31-1.89-.7-3-1.16-1.46-.61-3.15-1.22-4.95-1.87l-1.05-.38c-2.06-.72-4.5-1.55-6.95-2.19-.78-.24-1.57-.44-2.34-.64l-1.25-.32L203,51c-.65-.16-1.29-.31-1.93-.44l-1.1-.23c-1.87-.41-3.63-.79-5.18-1.05-.94-.15-1.79-.33-2.55-.48l-3.67-.71a.34.34,0,0,1-.27-.36.33.33,0,0,1,.32-.31l1.75,0,2,0c.91,0,1.77.05,2.62.1l.43,0c1.82.13,3.89.28,6.09.62.86.11,1.76.29,2.63.46l1,.19,1,.23c.9.21,1.84.42,2.75.69A56,56,0,0,1,216,52.2c2.08.88,3.92,1.87,5.55,2.74l.32.17c1.12.6,2.1,1.2,2.89,1.68l1.08.65,1.49.93a.34.34,0,0,1,.12.44A.32.32,0,0,1,227.13,59Zm-35.33-11,.52.1h0c.75.16,1.59.33,2.52.48,1.57.27,3.34.65,5.22,1l1.09.24c.64.13,1.29.28,1.94.44s1.05.25,1.58.36l1.25.32c.78.2,1.58.4,2.37.65,2.45.64,4.91,1.48,7,2.2l1.06.39c1.8.64,3.51,1.26,5,1.87,1.08.45,2,.8,2.9,1.12-.75-.46-1.66-1-2.69-1.56l-.32-.17c-1.61-.87-3.45-1.85-5.5-2.72a56.69,56.69,0,0,0-7-2.48c-.9-.26-1.83-.47-2.72-.68l-1-.22-1-.2c-.9-.17-1.74-.34-2.59-.45-2.19-.34-4.24-.48-6-.61l-.42,0c-.84,0-1.69-.09-2.58-.1Z"/><path class="cls-18" d="M227.69,63.48a79,79,0,0,1,11.16-3c1.37-.32,2.47-.44,3.22-.56l1.15-.17-1.16,0c-.76,0-1.88-.06-3.29,0a59.9,59.9,0,0,0-11.66,1.77c-4.73,1.19-10.18,2.84-15.89,4.69a104.23,104.23,0,0,1-18,4.46c-6.28,1-12.64,1.54-18.61,1.92s-11.6.6-16.42.61-8.85.18-11.67.16l-4.44.09,4.4.63c2.81.31,6.81.89,11.65,1.2s10.51.66,16.6.56a145.22,145.22,0,0,0,19-1.51c1.61-.23,3.24-.55,4.85-.88s3.2-.73,4.75-1.19c3.11-.87,6.09-1.9,8.94-3C218,67.17,223.13,65,227.69,63.48Z"/><path class="cls-19" d="M172.51,76.27c-5.35,0-10.33-.32-14.43-.58-3.74-.24-7-.63-9.55-1l-2.13-.25L142,73.86a.45.45,0,0,1,0-.9l4.44-.09c1.44,0,3.16,0,5.16-.06s4.14-.09,6.52-.1c5,0,10.86-.31,16.39-.62,5.13-.32,11.88-.83,18.57-1.9a104.62,104.62,0,0,0,18-4.45c6.44-2.09,11.65-3.63,15.91-4.7a60.31,60.31,0,0,1,11.74-1.78c1.08-.07,2,0,2.69,0h.63l1.17,0a.45.45,0,0,1,.06.9l-1.15.17-.63.09c-.69.1-1.55.22-2.56.46a80.65,80.65,0,0,0-11.12,3h0c-2.7.88-5.63,2-8.73,3.23-2.14.83-4.35,1.7-6.67,2.54-3.41,1.28-6.26,2.22-9,3-1.38.42-2.84.76-4.24,1.08l-.52.13c-1.67.33-3.29.65-4.89.88a142.86,142.86,0,0,1-19.11,1.51Zm-24.46-2.5.59.07c2.58.32,5.79.71,9.49,1,4.64.29,10.42.66,16.56.55a142.72,142.72,0,0,0,19-1.49c1.58-.23,3.18-.55,4.82-.88l.51-.12c1.39-.32,2.83-.66,4.2-1.07,2.69-.74,5.52-1.68,8.91-2.94,2.31-.85,4.52-1.71,6.65-2.54,3.12-1.22,6.06-2.37,8.78-3.25a96.49,96.49,0,0,1,9.74-2.79,59,59,0,0,0-10.06,1.66c-4.25,1.07-9.44,2.6-15.87,4.68a105.55,105.55,0,0,1-18.11,4.48c-6.71,1.08-13.49,1.59-18.65,1.92-5.54.31-11.37.6-16.43.62-2.38,0-4.57,0-6.51.09Z"/><path class="cls-20" d="M20.82,158.48h272a2.2,2.2,0,0,0,2-1.29l18-39.6a2.18,2.18,0,0,0-2-3.09H2.81a2.18,2.18,0,0,0-2,3.09l18,39.6A2.19,2.19,0,0,0,20.82,158.48Z"/><path class="cls-21" d="M310.82,116.25a.43.43,0,0,1,.4.61l-18,39.61a.45.45,0,0,1-.4.26h-272a.45.45,0,0,1-.4-.26l-18-39.61a.43.43,0,0,1,.4-.61h308m0-1.75H2.81a2.18,2.18,0,0,0-2,3.09l18,39.6a2.19,2.19,0,0,0,2,1.29h272a2.2,2.2,0,0,0,2-1.29l18-39.6a2.18,2.18,0,0,0-2-3.09Z"/><path class="cls-22" d="M310.82,114.5h-6.56l-20,44h8.55a2.2,2.2,0,0,0,2-1.29l18-39.6A2.18,2.18,0,0,0,310.82,114.5Z"/><path class="cls-19" d="M310.82,115.5a1.17,1.17,0,0,1,1,.54,1.19,1.19,0,0,1,.08,1.14l-18,39.6a1.2,1.2,0,0,1-1.08.7h-7l19.09-42h5.91m0-1h-6.56l-20,44h8.55a2.2,2.2,0,0,0,2-1.29l18-39.6a2.18,2.18,0,0,0-2-3.09Z"/><path class="cls-23" d="M2.81,114.5H9.37l20,44H20.82a2.19,2.19,0,0,1-2-1.29l-18-39.6A2.18,2.18,0,0,1,2.81,114.5Z"/><path class="cls-19" d="M8.72,115.5l19.09,42h-7a1.2,1.2,0,0,1-1.08-.7l-18-39.6A1.19,1.19,0,0,1,1.81,116a1.16,1.16,0,0,1,1-.54H8.72m.65-1H2.81a2.18,2.18,0,0,0-2,3.09l18,39.6a2.19,2.19,0,0,0,2,1.29h8.55l-20-44Z"/></g><g id="TEXTS"><path class="cls-24" d="M90.19,129.37h6.4c3,0,5,.66,6,1.76a4.7,4.7,0,0,1,1.29,3.43c0,2.55-1.34,4.76-4.57,5.77l2.27,5.46H95.72l-1.83-4.69H92.53l-1.26,4.69H85.78Zm5.37,7.81c1.83,0,2.79-.84,2.79-1.87a1.23,1.23,0,0,0-.35-.87,2.3,2.3,0,0,0-1.62-.47H94.43l-.87,3.21Z"/><path class="cls-24" d="M106.91,129.37h14l-1.22,4.51h-8.61l-.44,1.66h8l-1.06,4h-8l-.49,1.78h8.72l-1.19,4.5H102.5Z"/><path class="cls-24" d="M122.69,129.37h5.14l3.73,7.84,2.11-7.84h5.44l-4.41,16.42h-4.88l-3.89-8.16-2.2,8.16h-5.45Z"/><path class="cls-24" d="M143.85,134H139l1.24-4.65h15.15L154.17,134h-4.84l-3.16,11.77h-5.49Z"/><path class="cls-24" d="M160.38,129.26h5.44l2.49,16.53h-5.84l-.28-2.2h-5.75l-1.43,2.2h-6Zm1.5,10.43-.44-4-2.56,4Z"/><path class="cls-24" d="M173.12,129.37h5.48l-3.14,11.73h7.48l-1.26,4.69h-13Z"/><path class="cls-24" d="M188.92,143.14l3.15-3.75a8.79,8.79,0,0,0,5.53,2.32c.7,0,1.2-.26,1.2-.73s-.31-.68-2.7-1.57c-3-1.12-4.48-2.2-4.48-4.62,0-3.16,2.91-5.74,7.39-5.74a11.27,11.27,0,0,1,7.32,2.46l-3.15,3.75a7.87,7.87,0,0,0-4.73-1.83c-.71,0-1.2.19-1.2.66s.35.59,2.63,1.43c2.79,1,4.57,2.2,4.57,4.71,0,3.31-2.72,5.89-7.44,5.89A12,12,0,0,1,188.92,143.14Z"/><path class="cls-24" d="M209.56,139.53l-3.21-10.16h5.77l1.34,5.49,4.26-5.49h6.5l-9.33,10.84-1.51,5.58H207.9Z"/><path class="cls-24" d="M219.93,143.14l3.14-3.75a8.82,8.82,0,0,0,5.54,2.32c.7,0,1.19-.26,1.19-.73s-.3-.68-2.7-1.57c-3-1.12-4.47-2.2-4.47-4.62,0-3.16,2.9-5.74,7.38-5.74a11.25,11.25,0,0,1,7.32,2.46l-3.14,3.75a7.9,7.9,0,0,0-4.74-1.83c-.7,0-1.2.19-1.2.66s.36.59,2.63,1.43c2.79,1,4.57,2.2,4.57,4.71,0,3.31-2.72,5.89-7.43,5.89A12,12,0,0,1,219.93,143.14Z"/><path class="cls-24" d="M242,134h-4.83l1.25-4.65h15.15L252.36,134h-4.83l-3.16,11.77h-5.49Z"/><path class="cls-24" d="M254.8,129.37h14l-1.22,4.51H259l-.45,1.66h8l-1.05,4h-8l-.5,1.78h8.73l-1.2,4.5H250.39Z"/><path class="cls-24" d="M270.59,129.37H276l2,5.77,5.07-5.77h6l-4.41,16.42h-5.47l2.18-8.14L276,143.49h-.1l-2.2-5.84-2.18,8.14h-5.37Z"/><path class="cls-25" d="M96.59,130.12c2.64,0,4.5.52,5.52,1.54a3.94,3.94,0,0,1,1.07,2.9c0,2.48-1.4,4.23-4.05,5.05l-.78.25.32.76,1.84,4.42H96.24l-1.65-4.21-.18-.48H92l-.15.56L90.69,145H86.76l4-14.92h5.83m-4,7.81h3c2.44,0,3.54-1.31,3.54-2.62a2,2,0,0,0-.57-1.4,2.94,2.94,0,0,0-2.15-.69H93.86l-.15.56L92.84,137l-.25.94m4-8.56h-6.4l-4.41,16.42h5.49l1.26-4.69h1.36l1.83,4.69h5.91l-2.27-5.46c3.23-1,4.57-3.22,4.57-5.77a4.7,4.7,0,0,0-1.29-3.43c-1.1-1.1-3-1.76-6-1.76Zm-3,7.81.87-3.21h1.95a2.3,2.3,0,0,1,1.62.47,1.23,1.23,0,0,1,.35.87c0,1-1,1.87-2.79,1.87Z"/><path class="cls-26" d="M119.93,130.12l-.81,3h-8.61l-.15.55-.45,1.67-.25.94h8l-.65,2.47h-8l-.15.55-.49,1.78-.26.95h8.73l-.8,3H103.48l4-14.92h12.45m1-.75h-14l-4.41,16.42h14.12l1.19-4.5h-8.72l.49-1.78h8l1.06-4h-8l.44-1.66h8.61l1.22-4.51Z"/><path class="cls-27" d="M138.13,130.12l-4,14.92H130.3l-3.69-7.73-.88-1.83-.52,2-2.06,7.6h-3.89l4-14.92h4.09l3.52,7.41.87,1.83.53-2,2-7.28h3.89m1-.75h-5.44l-2.11,7.84-3.73-7.84h-5.14l-4.41,16.42h5.45l2.2-8.16,3.89,8.16h4.88l4.41-16.42Z"/><path class="cls-28" d="M154.43,130.12l-.84,3.15h-4.83l-.15.55-3,11.22h-3.93l2.91-10.83.26-.94H140l.84-3.15h13.6m1-.75H140.26L139,134h4.83l-3.17,11.77h5.49L149.33,134h4.84l1.24-4.65Z"/><path class="cls-29" d="M165.18,130l2.26,15h-4.31l-.2-1.55-.08-.65H156l-.22.34L154.6,145h-4.15l10.33-15h4.4m-7.67,10.43h5.21l-.09-.83-.45-4-.23-2.1-1.14,1.78-2.56,4-.74,1.15m8.31-11.18h-5.44L149,145.79h6l1.43-2.2h5.75l.28,2.2h5.84l-2.49-16.53Zm-6.94,10.43,2.56-4,.44,4Z"/><path class="cls-30" d="M177.63,130.12l-2.89,10.79-.26.94H182L181.1,145H169.69l4-14.92h3.94m1-.75h-5.48l-4.41,16.42h13l1.26-4.69h-7.48l3.14-11.73Z"/><path class="cls-31" d="M199,129.8a11,11,0,0,1,6.24,1.82l-2.19,2.62a8.39,8.39,0,0,0-4.61-1.56c-1.81,0-1.95,1.08-1.95,1.41,0,1,.62,1.21,2.67,2l.45.16c3,1.12,4.08,2.17,4.08,4,0,3.08-2.69,5.14-6.69,5.14a11.38,11.38,0,0,1-7-2.32l2.19-2.62a9.17,9.17,0,0,0,5.43,2c1.35,0,2-.74,2-1.48,0-1.08-.74-1.36-3.19-2.27-3.06-1.13-4-2-4-3.92,0-2.89,2.79-5,6.64-5m0-.75c-4.48,0-7.39,2.58-7.39,5.74,0,2.42,1.43,3.5,4.48,4.62,2.39.89,2.7,1.06,2.7,1.57s-.5.73-1.2.73a8.79,8.79,0,0,1-5.53-2.32l-3.15,3.75a12,12,0,0,0,8.09,3c4.72,0,7.44-2.58,7.44-5.89,0-2.51-1.78-3.68-4.57-4.71-2.28-.84-2.63-.94-2.63-1.43s.49-.66,1.2-.66a7.87,7.87,0,0,1,4.73,1.83l3.15-3.75a11.27,11.27,0,0,0-7.32-2.46Z"/><path class="cls-32" d="M222.58,130.12l-8.26,9.6-.11.13-.05.17-1.35,5h-3.94l1.42-5.32.05-.21-.06-.21-2.91-9.18h4.16l1.2,4.92.36,1.51,1-1.23,4-5.2h4.49m1.64-.75h-6.5l-4.26,5.49-1.34-5.49h-5.77l3.21,10.16-1.66,6.26h5.48l1.51-5.58,9.33-10.84Z"/><path class="cls-33" d="M230,129.8a11,11,0,0,1,6.25,1.82l-2.19,2.62a8.4,8.4,0,0,0-4.62-1.56c-1.81,0-1.95,1.08-1.95,1.41,0,1,.62,1.21,2.68,2l.44.16c3,1.12,4.08,2.17,4.08,4,0,3.08-2.68,5.14-6.68,5.14a11.38,11.38,0,0,1-7-2.32l2.2-2.62a9.15,9.15,0,0,0,5.43,2c1.34,0,1.94-.74,1.94-1.48,0-1.08-.74-1.36-3.19-2.27-3.05-1.13-4-2-4-3.92,0-2.89,2.79-5,6.63-5m0-.75c-4.48,0-7.38,2.58-7.38,5.74,0,2.42,1.43,3.5,4.47,4.62,2.4.89,2.7,1.06,2.7,1.57s-.49.73-1.19.73a8.82,8.82,0,0,1-5.54-2.32l-3.14,3.75a12,12,0,0,0,8.09,3c4.71,0,7.43-2.58,7.43-5.89,0-2.51-1.78-3.68-4.57-4.71-2.27-.84-2.63-.94-2.63-1.43s.5-.66,1.2-.66a7.9,7.9,0,0,1,4.74,1.83l3.14-3.75a11.25,11.25,0,0,0-7.32-2.46Z"/><path class="cls-34" d="M252.63,130.12l-.84,3.15H247l-.15.55-3,11.22h-3.93l2.91-10.83.25-.94h-4.83l.84-3.15h13.6m1-.75H238.46L237.21,134H242l-3.16,11.77h5.49L247.53,134h4.83l1.25-4.65Z"/><path class="cls-35" d="M267.82,130.12l-.81,3H258.4l-.15.55-.44,1.67-.26.94h8l-.66,2.47h-8l-.16.55-.49,1.78L256,142h8.73l-.79,3H251.37l4-14.92h12.44m1-.75h-14l-4.41,16.42h14.12l1.2-4.5H257l.5-1.78h8l1.05-4h-8l.45-1.66h8.6l1.22-4.51Z"/><path class="cls-36" d="M288.09,130.12l-4,14.92h-3.91l1.93-7.19.79-3-2.07,2.26-4.59,5-1.8-4.77-.82-2.18-.61,2.25L271,145h-3.82l4-14.92h4.31l1.79,5.27.42,1.22.86-1,4.84-5.52h4.71m1-.75h-6L278,135.14l-2-5.77h-5.41l-4.41,16.42h5.37l2.18-8.14,2.2,5.84h.1l5.34-5.84-2.18,8.14h5.47l4.41-16.42Z"/><path class="cls-37" d="M28,138.85c0-4.48,3.45-9.92,10.53-9.92,3.54,0,6,1.88,6.73,4.78l-4.9,2.14a2.49,2.49,0,0,0-2.56-2,4.31,4.31,0,0,0-4.06,4.51,2.54,2.54,0,0,0,2.58,2.81,4,4,0,0,0,3.19-1.71l3.8,3a8.92,8.92,0,0,1-7.53,3.59C31.19,146.05,28,143.26,28,138.85Z"/><path class="cls-37" d="M53.47,129.16h5.44l2.48,16.54H55.55l-.28-2.21H49.53L48.1,145.7h-6ZM55,139.6l-.45-4-2.55,4Z"/><path class="cls-37" d="M66.2,129.28h6.41c3,0,4.94.66,6,1.76A4.72,4.72,0,0,1,80,134.46c0,2.56-1.34,4.77-4.58,5.77l2.28,5.47H71.74L69.91,141H68.55l-1.27,4.69H61.79Zm5.37,7.81c1.83,0,2.79-.84,2.79-1.88a1.17,1.17,0,0,0-.35-.86,2.22,2.22,0,0,0-1.62-.47H70.45l-.87,3.21Z"/><path class="cls-38" d="M38.53,129.68c2.9,0,5,1.34,5.83,3.61l-3.59,1.56a3.19,3.19,0,0,0-3-1.75c-3,0-4.81,2.73-4.81,5.26a3.3,3.3,0,0,0,3.33,3.56,4.53,4.53,0,0,0,3.28-1.44l2.65,2.1a8.17,8.17,0,0,1-6.47,2.72c-4.27,0-7-2.53-7-6.45,0-4.45,3.43-9.17,9.78-9.17m0-.75c-7.08,0-10.53,5.44-10.53,9.92s3.19,7.2,7.78,7.2a8.92,8.92,0,0,0,7.53-3.59l-3.8-3a4,4,0,0,1-3.19,1.71,2.54,2.54,0,0,1-2.58-2.81,4.31,4.31,0,0,1,4.06-4.51,2.49,2.49,0,0,1,2.56,2l4.9-2.14c-.68-2.9-3.19-4.78-6.73-4.78Z"/><path class="cls-39" d="M58.26,129.91l2.26,15h-4.3L56,143.4l-.09-.66H49.12l-.22.35L47.69,145H43.54l10.32-15h4.4m-7.67,10.44h5.22l-.1-.83-.44-4-.24-2.1-1.14,1.78-2.56,4-.74,1.15m8.32-11.19H53.47L42.12,145.7h6l1.43-2.21h5.74l.28,2.21h5.84l-2.48-16.54ZM52,139.6l2.55-4,.45,4Z"/><path class="cls-40" d="M72.61,130c2.64,0,4.49.52,5.52,1.54a3.92,3.92,0,0,1,1.07,2.89c0,2.49-1.4,4.23-4,5.06l-.79.24.32.76L76.52,145H72.25l-1.64-4.21-.19-.48H68l-.15.55L66.71,145H62.77l4-14.92h5.83m-4,7.81h3c2.45,0,3.54-1.32,3.54-2.63a1.94,1.94,0,0,0-.57-1.39,2.92,2.92,0,0,0-2.15-.69H69.87l-.15.55-.86,3.22-.26.94m4-8.56H66.2L61.79,145.7h5.49L68.55,141h1.36l1.83,4.69h5.91l-2.28-5.47c3.24-1,4.58-3.21,4.58-5.77A4.72,4.72,0,0,0,78.66,131c-1.11-1.1-3-1.76-6-1.76Zm-3,7.81.87-3.21h1.94a2.22,2.22,0,0,1,1.62.47,1.17,1.17,0,0,1,.35.86c0,1-1,1.88-2.79,1.88Z"/></g></g></svg>